<?xml version="1.0" standalone="no"?>
<!DOCTYPE svg PUBLIC "-//W3C//DTD SVG 20010904//EN"
 "http://www.w3.org/TR/2001/REC-SVG-20010904/DTD/svg10.dtd">
<svg version="1.0" xmlns="http://www.w3.org/2000/svg"
 width="512.000000pt" height="512.000000pt" viewBox="0 0 512.000000 512.000000"
 preserveAspectRatio="xMidYMid meet">

<g transform="translate(0.000000,512.000000) scale(0.100000,-0.100000)"
fill="#000000" stroke="none">
<path d="M2315 4984 c-548 -58 -1065 -297 -1458 -674 -609 -583 -874 -1406
-721 -2236 168 -917 863 -1673 1763 -1920 746 -205 1527 -55 2146 411 546 412
897 1039 966 1729 14 148 6 462 -16 601 -156 987 -864 1771 -1823 2021 -199
51 -320 66 -577 69 -132 2 -258 1 -280 -1z m-707 -1186 c22 -15 54 -49 69 -75
l28 -48 3 -307 3 -308 190 0 189 0 0 62 c0 82 28 142 81 168 46 24 162 27 214
6 30 -13 35 -13 50 4 27 30 80 42 158 38 50 -2 81 -10 101 -23 23 -16 43 -19
100 -16 86 3 146 -17 177 -60 17 -25 27 -29 65 -29 76 0 129 -44 148 -122 l6
-28 110 0 110 0 0 300 c0 327 3 345 58 403 53 57 89 67 227 67 144 0 176 -11
237 -78 49 -54 58 -106 58 -326 l0 -183 42 -7 c54 -9 91 -31 114 -70 17 -28
18 -57 19 -331 0 -295 0 -301 -23 -336 -23 -38 -80 -69 -127 -69 l-25 0 0
-185 c0 -219 -8 -268 -57 -324 -59 -70 -93 -81 -238 -81 -138 0 -174 10 -227
67 -55 58 -58 76 -58 403 l0 300 -103 0 -104 0 -12 -102 c-7 -57 -26 -191 -42
-298 l-30 -195 27 -320 c15 -179 24 -333 20 -349 -10 -42 -74 -102 -121 -115
-53 -14 -676 -15 -728 0 -21 5 -53 23 -71 39 -59 53 -60 59 -42 362 9 150 16
296 16 325 l0 51 -141 134 c-78 73 -147 145 -155 160 -8 15 -14 49 -14 76 0
54 10 73 98 172 l54 60 -175 0 -176 0 -3 -303 c-3 -300 -3 -303 -28 -351 -15
-28 -43 -61 -68 -80 l-44 -31 -147 0 c-144 0 -148 1 -189 28 -23 15 -54 46
-69 69 l-28 41 -3 224 -3 223 -32 0 c-45 0 -98 29 -124 69 -23 33 -23 39 -23
333 0 326 2 336 58 376 15 11 49 23 75 27 l47 7 0 209 c0 227 4 246 56 308 51
61 90 72 245 69 129 -3 138 -4 177 -30z"/>
</g>
</svg>
